<svg width="66" height="56" viewBox="0 0 66 56" fill="none" xmlns="http://www.w3.org/2000/svg">
<rect x="10.5332" y="12.5" width="45" height="31" rx="2" fill="#1F72CD" stroke="#D9D9D9"/>
<path fill-rule="evenodd" clip-rule="evenodd" d="M18.3218 23.2407L14.0332 33.152H19.1673L19.8037 31.5717H21.2586L21.8951 33.152H27.5462V31.9459L28.0498 33.152H30.973L31.4766 31.9204V33.152H43.2294L44.6585 31.6128L45.9967 33.152L52.0332 33.1647L47.7311 28.224L52.0332 23.2407H46.0903L44.6992 24.7515L43.4031 23.2407H30.6175L29.5196 25.7989L28.396 23.2407H23.2726V24.4058L22.7027 23.2407H18.3218ZM35.8723 24.6481H42.6214L44.6856 26.9767L46.8164 24.6481H48.8806L45.7442 28.2226L48.8806 31.7559H46.7228L44.6585 29.4003L42.5169 31.7559H35.8723V24.6481ZM37.5391 27.419V26.1207V26.1194H41.7503L43.5878 28.1957L41.6689 30.2834H37.5391V28.866H41.221V27.419H37.5391ZM19.3152 24.6481H21.8177L24.6624 31.369V24.6481H27.4039L29.601 29.467L31.6259 24.6481H34.3537V31.7601H32.6939L32.6804 26.1872L30.2606 31.7601H28.7758L26.3424 26.1872V31.7601H22.9279L22.2805 30.1657H18.7832L18.1372 31.7587H16.3077L19.3152 24.6481ZM19.3804 28.6918L20.5326 25.8515L21.6835 28.6918H19.3804Z" fill="white"/>
</svg>
