<svg width="66" height="56" viewBox="0 0 66 56" fill="none" xmlns="http://www.w3.org/2000/svg">
<path d="M7.37381 17.0017C7.3732 15.6011 7.3729 14.9007 7.6453 14.3657C7.8849 13.8951 8.26739 13.5124 8.73789 13.2726C9.27279 13 9.97313 13 11.3738 13H52.6461C54.0463 13 54.7463 13 55.2811 13.2725C55.7515 13.5122 56.134 13.8946 56.3736 14.365C56.6461 14.8998 56.6461 15.5999 56.6461 17V38.9999C56.6461 40.4 56.6461 41.1001 56.3736 41.6349C56.134 42.1053 55.7515 42.4877 55.2811 42.7274C54.7463 42.9999 54.0463 42.9999 52.6461 42.9999H11.3834C9.98381 42.9999 9.28402 42.9999 8.74936 42.7276C8.27905 42.488 7.89663 42.1057 7.65687 41.6355C7.3843 41.101 7.384 40.4012 7.38339 39.0016L7.37381 17.0017Z" fill="white"/>
<path d="M56.6465 29.8484C56.6465 29.8484 43.182 38.9283 18.5254 42.9999H54.1465C55.5272 42.9999 56.6465 41.8806 56.6465 40.4999V29.8484Z" fill="#F48120"/>
<path d="M11.5377 23.7371H9.4873V30.6063H11.5377C12.6216 30.6063 13.4052 30.3565 14.0974 29.8195C14.9201 29.17 15.4033 28.1958 15.4033 27.1842C15.3903 25.1484 13.81 23.7371 11.5377 23.7371ZM13.1832 28.9077C12.7392 29.2824 12.1776 29.4573 11.2634 29.4573H10.8847V24.9111H11.2634C12.1645 24.9111 12.713 25.061 13.1832 25.4606C13.6664 25.8728 13.9537 26.5097 13.9537 27.1717C13.9537 27.8336 13.6664 28.4956 13.1832 28.9077Z" fill="#231F20"/>
<path d="M17.4404 23.7371H16.043V30.6063H17.4404V23.7371Z" fill="#231F20"/>
<path d="M20.8625 26.3719C20.0267 26.0722 19.7785 25.8723 19.7785 25.5102C19.7785 25.073 20.2226 24.7483 20.8233 24.7483C21.2412 24.7483 21.5938 24.9107 21.9464 25.3103L22.6778 24.3986C22.077 23.899 21.3588 23.6367 20.5621 23.6367C19.2953 23.6367 18.3159 24.486 18.3159 25.6101C18.3159 26.5593 18.773 27.0464 20.0789 27.496C20.6274 27.6833 20.9017 27.8082 21.0453 27.8832C21.3196 28.058 21.4632 28.3078 21.4632 28.5951C21.4632 29.1571 21.0062 29.5693 20.3793 29.5693C19.7132 29.5693 19.1778 29.2445 18.8513 28.6575L17.9502 29.4943C18.5901 30.4061 19.3737 30.8057 20.4315 30.8057C21.8811 30.8057 22.9129 29.8815 22.9129 28.5451C22.939 27.4335 22.4558 26.934 20.8625 26.3719Z" fill="#231F20"/>
<path d="M23.3701 27.1839C23.3701 29.2072 25.0287 30.7684 27.1574 30.7684C27.7582 30.7684 28.2805 30.656 28.9074 30.3687V28.7951C28.3458 29.3321 27.8496 29.5444 27.2227 29.5444C25.8123 29.5444 24.8067 28.5702 24.8067 27.1714C24.8067 25.8475 25.8384 24.8109 27.1574 24.8109C27.8235 24.8109 28.3328 25.0357 28.9074 25.5852V24.0116C28.2936 23.7118 27.7843 23.5869 27.1835 23.5869C25.0809 23.5869 23.3701 25.1856 23.3701 27.1839Z" fill="#231F20"/>
<path d="M40.0337 28.3582L38.1139 23.7371H36.5859L39.6288 30.7812H40.3863L43.4814 23.7371H41.9665L40.0337 28.3582Z" fill="#231F20"/>
<path d="M44.1211 30.6063H48.0912V29.4448H45.5185V27.5963H47.9998V26.4348H45.5185V24.9111H48.0912V23.7371H44.1211V30.6063Z" fill="#231F20"/>
<path d="M53.6417 25.7723C53.6417 24.4859 52.7144 23.749 51.095 23.749H49.0186V30.6183H50.4159V27.8581H50.5988L52.5316 30.6183H54.2555L51.9962 27.7207C53.054 27.5084 53.6417 26.8215 53.6417 25.7723ZM50.8208 26.9089H50.4159V24.8231H50.8469C51.7219 24.8231 52.1921 25.1728 52.1921 25.8473C52.1921 26.5342 51.7219 26.9089 50.8208 26.9089Z" fill="#231F20"/>
<path d="M33.2034 30.8557C35.3167 30.8557 37.0299 29.2174 37.0299 27.1963C37.0299 25.1753 35.3167 23.5369 33.2034 23.5369C31.0901 23.5369 29.377 25.1753 29.377 27.1963C29.377 29.2174 31.0901 30.8557 33.2034 30.8557Z" fill="url(#paint0_linear_1677_22876)"/>
<path opacity="0.65" d="M33.2034 30.8557C35.3167 30.8557 37.0299 29.2174 37.0299 27.1963C37.0299 25.1753 35.3167 23.5369 33.2034 23.5369C31.0901 23.5369 29.377 25.1753 29.377 27.1963C29.377 29.2174 31.0901 30.8557 33.2034 30.8557Z" fill="url(#paint1_linear_1677_22876)"/>
<path d="M54.53 23.9991C54.53 23.8742 54.4386 23.8118 54.2949 23.8118H54.0859V24.4113H54.2427V24.174L54.4255 24.4113H54.6083L54.3994 24.1615C54.4777 24.149 54.53 24.0865 54.53 23.9991ZM54.2688 24.0865H54.2427V23.9242H54.2688C54.3471 23.9242 54.3863 23.9492 54.3863 23.9991C54.3863 24.0616 54.3471 24.0865 54.2688 24.0865Z" fill="#231F20"/>
<path d="M54.321 23.5869C54.0206 23.5869 53.7725 23.8242 53.7725 24.1115C53.7725 24.3987 54.0206 24.636 54.321 24.636C54.6213 24.636 54.8695 24.3987 54.8695 24.1115C54.8695 23.8242 54.6213 23.5869 54.321 23.5869ZM54.321 24.5486C54.0859 24.5486 53.8769 24.3613 53.8769 24.1115C53.8769 23.8742 54.0728 23.6743 54.321 23.6743C54.556 23.6743 54.7519 23.8742 54.7519 24.1115C54.7519 24.3488 54.556 24.5486 54.321 24.5486Z" fill="#231F20"/>
<defs>
<linearGradient id="paint0_linear_1677_22876" x1="35.1592" y1="30.1247" x2="32.6786" y2="26.0636" gradientUnits="userSpaceOnUse">
<stop stop-color="#F89F20"/>
<stop offset="0.2502" stop-color="#F79A20"/>
<stop offset="0.5331" stop-color="#F68D20"/>
<stop offset="0.6196" stop-color="#F58720"/>
<stop offset="0.7232" stop-color="#F48120"/>
<stop offset="1" stop-color="#F37521"/>
</linearGradient>
<linearGradient id="paint1_linear_1677_22876" x1="34.7416" y1="30.0714" x2="31.1421" y2="22.7149" gradientUnits="userSpaceOnUse">
<stop stop-color="#F58720"/>
<stop offset="0.3587" stop-color="#E16F27"/>
<stop offset="0.703" stop-color="#D4602C"/>
<stop offset="0.9816" stop-color="#D05B2E"/>
</linearGradient>
</defs>
</svg>
