<?xml version="1.0" encoding="UTF-8"?>
<svg id="Layer_2" data-name="Layer 2" xmlns="http://www.w3.org/2000/svg" viewBox="0 0 133.9 23.63">
  <defs>
    <style>
      .cls-1 {
        fill: #5653fe;
      }

      .cls-2 {
        fill: none;
        stroke: #5653fe;
        stroke-miterlimit: 10;
      }
    </style>
  </defs>
  <g id="Layer_1-2" data-name="Layer 1">
    <g>
      <path class="cls-1" d="M.72,16.72c-.48-1.17-.72-2.42-.72-3.74s.24-2.57,.72-3.74,1.15-2.19,1.99-3.06c.84-.86,1.88-1.55,3.1-2.05,1.22-.5,2.54-.76,3.94-.76s2.72,.25,3.94,.76c1.22,.5,2.25,1.19,3.1,2.05,.84,.86,1.5,1.88,1.98,3.06s.72,2.42,.72,3.74c0,2.26-.66,4.25-1.97,5.96l3.04,3.39h-4.08l-1.17-1.33c-1.62,1.06-3.47,1.59-5.55,1.59-1.41,0-2.72-.25-3.94-.76-1.22-.5-2.25-1.19-3.1-2.05-.84-.86-1.51-1.88-1.99-3.06Zm3.68-6.96c-.53,.98-.79,2.05-.79,3.21s.27,2.24,.79,3.21c.53,.98,1.27,1.76,2.21,2.33,.94,.58,1.99,.87,3.14,.87,1.21,0,2.3-.32,3.29-.96l-4.05-4.59,2.27-1.98,3.85,4.33c.53-.98,.8-2.05,.8-3.21s-.27-2.24-.8-3.21c-.53-.98-1.27-1.75-2.21-2.33-.94-.57-1.99-.86-3.14-.86s-2.19,.29-3.14,.86-1.68,1.35-2.21,2.33Z"/>
      <path class="cls-1" d="M31.37,9.38h3.48v12.95h-3.34v-1.04c-.96,.87-2.13,1.3-3.51,1.3-.88,0-1.7-.18-2.47-.55-.77-.37-1.41-.88-1.94-1.52-.87-1.08-1.3-2.5-1.3-4.28v-6.86h3.47v6.99c0,.99,.22,1.73,.65,2.22,.49,.54,1.13,.81,1.94,.81,.65,0,1.24-.17,1.75-.5s.94-.7,1.26-1.11V9.38Z"/>
      <path class="cls-1" d="M51.26,9.38v12.95h-3.34v-1.04c-1.02,.87-2.22,1.3-3.61,1.3-.95,0-1.85-.2-2.71-.59-.86-.39-1.58-.92-2.16-1.59-1.1-1.28-1.66-2.79-1.66-4.55,0-1.9,.62-3.5,1.85-4.8,1.23-1.3,2.73-1.95,4.5-1.95,1.44,0,2.71,.44,3.79,1.32v-1.04h3.34Zm-3.47,8.41v-3.87c-.36-.5-.83-.89-1.39-1.17-.56-.29-1.17-.43-1.82-.43-.98,0-1.78,.35-2.41,1.05-.62,.7-.93,1.53-.93,2.5,0,1.02,.32,1.86,.97,2.53,.65,.67,1.46,1,2.44,1,.64,0,1.24-.15,1.79-.44,.55-.29,1-.68,1.34-1.17Z"/>
      <path class="cls-1" d="M58.73,22.32h-3.47V9.38h3.34v1.04c1.1-.88,2.31-1.32,3.65-1.32,.88,0,1.71,.18,2.5,.55,.79,.37,1.45,.88,1.99,1.53,.45,.53,.79,1.15,1.01,1.86,.22,.71,.33,1.6,.33,2.67v6.6h-3.48v-6.86c0-1.11-.26-1.93-.77-2.44-.48-.48-1.13-.72-1.94-.72-.67,0-1.29,.17-1.86,.5s-1,.7-1.3,1.1v8.41Z"/>
      <path class="cls-1" d="M80.48,19.39l.54,2.93c-.5,.17-1.23,.26-2.17,.26-2.05,0-3.55-.62-4.48-1.86-.64-.86-.96-2.15-.96-3.87v-4.54h-3.6v-2.93h3.6v-3.61h3.48v3.61h4.26v2.93h-4.26v4.94c0,.76,.14,1.3,.42,1.63,.37,.43,.96,.64,1.77,.64,.55,0,1.02-.04,1.41-.13Z"/>
      <path class="cls-1" d="M92.75,9.21l-.39,3.23c-.26-.09-.68-.13-1.25-.13-.7,0-1.33,.2-1.9,.59-.57,.39-.99,.82-1.25,1.28v8.15h-3.47V9.38h3.34v1.3c.39-.49,.92-.87,1.58-1.15,.66-.28,1.39-.42,2.17-.42,.28,0,.67,.03,1.17,.1Z"/>
      <path class="cls-1" d="M94.84,19.25c-.6-1.03-.89-2.16-.89-3.39s.3-2.37,.89-3.4c.59-1.03,1.42-1.85,2.48-2.45,1.06-.6,2.23-.91,3.51-.91s2.46,.3,3.51,.91c1.06,.6,1.88,1.42,2.48,2.45,.59,1.03,.89,2.16,.89,3.4s-.3,2.36-.89,3.39c-.6,1.03-1.42,1.84-2.48,2.44s-2.23,.9-3.51,.9-2.46-.3-3.51-.9c-1.06-.6-1.88-1.41-2.48-2.44Zm3.53-5.91c-.64,.68-.96,1.52-.96,2.52s.32,1.84,.96,2.52c.64,.68,1.46,1.02,2.46,1.02s1.82-.34,2.46-1.02c.64-.68,.96-1.52,.96-2.52s-.32-1.84-.96-2.52c-.64-.68-1.46-1.02-2.46-1.02s-1.82,.34-2.46,1.02Z"/>
    </g>
    <g>
      <path class="cls-1" d="M125.44,21.7h-1.55l3.3-7.7h1.05l3.3,7.7h-1.55l-.73-1.7h-3.09l-.72,1.7Zm2.27-5.3l-.98,2.28h1.96l-.98-2.28Z"/>
      <path class="cls-1" d="M132.42,21.7v-7.7h1.48v7.7h-1.48Z"/>
    </g>
    <line class="cls-2" x1="116.9" y1="23.63" x2="116.9"/>
  </g>
</svg>