<svg width="66" height="56" viewBox="0 0 66 56" fill="none" xmlns="http://www.w3.org/2000/svg">
<path fill-rule="evenodd" clip-rule="evenodd" d="M23.7665 40.5293V42.2221V43.9149H23.0255V43.5038C22.7904 43.8087 22.4338 44 21.949 44C20.9933 44 20.2441 43.2566 20.2441 42.2221C20.2441 41.1884 20.9933 40.4442 21.949 40.4442C22.4338 40.4442 22.7904 40.6355 23.0255 40.9404V40.5293H23.7665ZM22.0412 41.1382C21.3997 41.1382 21.0072 41.627 21.0072 42.2221C21.0072 42.8172 21.3997 43.306 22.0412 43.306C22.6541 43.306 23.0679 42.8382 23.0679 42.2221C23.0679 41.6059 22.6541 41.1382 22.0412 41.1382ZM48.8083 42.2221C48.8083 41.627 49.2009 41.1382 49.8423 41.1382C50.4561 41.1382 50.869 41.6059 50.869 42.2221C50.869 42.8382 50.4561 43.306 49.8423 43.306C49.2009 43.306 48.8083 42.8172 48.8083 42.2221ZM51.5684 39.1698V42.2221V43.9149H50.8266V43.5038C50.5915 43.8087 50.2349 44 49.7501 44C48.7944 44 48.0452 43.2566 48.0452 42.2221C48.0452 41.1884 48.7944 40.4442 49.7501 40.4442C50.2349 40.4442 50.5915 40.6355 50.8266 40.9404V39.1698H51.5684ZM32.965 41.1033C33.4424 41.1033 33.7493 41.4008 33.8276 41.9246H32.0591C32.1383 41.4357 32.437 41.1033 32.965 41.1033ZM31.2821 42.2221C31.2821 41.1666 31.9807 40.4442 32.9797 40.4442C33.9345 40.4442 34.5907 41.1666 34.598 42.2221C34.598 42.321 34.5907 42.4134 34.5833 42.505H32.0526C32.1595 43.1147 32.5945 43.3344 33.0719 43.3344C33.4138 43.3344 33.7778 43.2063 34.0635 42.9801L34.4266 43.5257C34.0129 43.8727 33.5428 44 33.0294 44C32.0093 44 31.2821 43.2987 31.2821 42.2221ZM41.9276 42.2221C41.9276 41.627 42.3202 41.1382 42.9616 41.1382C43.5745 41.1382 43.9883 41.6059 43.9883 42.2221C43.9883 42.8382 43.5745 43.306 42.9616 43.306C42.3202 43.306 41.9276 42.8172 41.9276 42.2221ZM44.6869 40.5293V42.2221V43.9149H43.9459V43.5038C43.71 43.8087 43.3542 44 42.8694 44C41.9137 44 41.1646 43.2566 41.1646 42.2221C41.1646 41.1884 41.9137 40.4442 42.8694 40.4442C43.3542 40.4442 43.71 40.6355 43.9459 40.9404V40.5293H44.6869ZM37.7425 42.2221C37.7425 43.2493 38.4623 44 39.5608 44C40.0741 44 40.4161 43.8865 40.7866 43.5963L40.4308 43.0012C40.1525 43.1998 39.8603 43.306 39.5388 43.306C38.9471 43.2987 38.5121 42.8739 38.5121 42.2221C38.5121 41.5703 38.9471 41.1455 39.5388 41.1382C39.8603 41.1382 40.1525 41.2444 40.4308 41.443L40.7866 40.8479C40.4161 40.5577 40.0741 40.4442 39.5608 40.4442C38.4623 40.4442 37.7425 41.1949 37.7425 42.2221ZM46.3982 40.9404C46.5908 40.6428 46.8691 40.4442 47.2967 40.4442C47.4469 40.4442 47.6607 40.4726 47.8248 40.5366L47.5963 41.2306C47.4396 41.1666 47.2829 41.1455 47.1327 41.1455C46.6479 41.1455 46.4055 41.4568 46.4055 42.017V43.9149H45.6637V40.5293H46.3982V40.9404ZM27.4316 40.7985C27.075 40.565 26.5837 40.4442 26.0418 40.4442C25.1783 40.4442 24.6226 40.8552 24.6226 41.5281C24.6226 42.0802 25.0363 42.4207 25.7986 42.5269L26.1487 42.5764C26.5551 42.6331 26.7469 42.7393 26.7469 42.9307C26.7469 43.1925 26.476 43.3417 25.97 43.3417C25.4566 43.3417 25.0861 43.1787 24.8364 42.9874L24.4871 43.5606C24.8935 43.8581 25.4068 44 25.9626 44C26.9469 44 27.5173 43.5395 27.5173 42.895C27.5173 42.2999 27.0685 41.9886 26.3266 41.8824L25.9773 41.8321C25.6566 41.79 25.3995 41.7268 25.3995 41.4998C25.3995 41.2517 25.6419 41.1033 26.0483 41.1033C26.4833 41.1033 26.9044 41.2663 27.1109 41.3936L27.4316 40.7985ZM36.0956 40.9404C36.2874 40.6428 36.5657 40.4442 36.9933 40.4442C37.1435 40.4442 37.3573 40.4726 37.5214 40.5366L37.2929 41.2306C37.1362 41.1666 36.9795 41.1455 36.8293 41.1455C36.3445 41.1455 36.1021 41.4568 36.1021 42.017V43.9149H35.3611V40.5293H36.0956V40.9404ZM30.6691 40.5293H29.4572V39.5022H28.708V40.5293H28.0167V41.2022H28.708V42.7466C28.708 43.5322 29.0148 44 29.8913 44C30.2129 44 30.5834 43.9011 30.8185 43.7381L30.6046 43.1074C30.3835 43.2347 30.1411 43.2987 29.9485 43.2987C29.578 43.2987 29.4572 43.0717 29.4572 42.732V41.2022H30.6691V40.5293ZM19.5887 41.79V43.9149H18.8395V42.0308C18.8395 41.4568 18.5972 41.1382 18.0912 41.1382C17.599 41.1382 17.2571 41.4503 17.2571 42.0381V43.9149H16.5079V42.0308C16.5079 41.4568 16.259 41.1382 15.7669 41.1382C15.2601 41.1382 14.932 41.4503 14.932 42.0381V43.9149H14.1836V40.5293H14.9254V40.9469C15.2037 40.5504 15.5596 40.4442 15.9236 40.4442C16.4442 40.4442 16.8148 40.6712 17.0498 41.0466C17.364 40.5715 17.8129 40.4369 18.2479 40.4442C19.0754 40.4515 19.5887 40.9898 19.5887 41.79Z" fill="white"/>
<path d="M38.417 34.7767H27.1855V14.7261H38.417V34.7767Z" fill="#FF5F00"/>
<path d="M27.8985 24.7517C27.8985 20.6844 29.8156 17.0613 32.801 14.7264C30.6179 13.0191 27.8626 12 24.8683 12C17.7795 12 12.0332 17.709 12.0332 24.7517C12.0332 31.7944 17.7795 37.5034 24.8683 37.5034C27.8626 37.5034 30.6179 36.4844 32.801 34.777C29.8156 32.4421 27.8985 28.8191 27.8985 24.7517Z" fill="#EB001B"/>
<path d="M53.5694 24.7517C53.5694 31.7944 47.8231 37.5034 40.7343 37.5034C37.7399 37.5034 34.9847 36.4844 32.8008 34.777C35.787 32.4421 37.704 28.8191 37.704 24.7517C37.704 20.6844 35.787 17.0613 32.8008 14.7264C34.9847 13.0191 37.7399 12 40.7343 12C47.8231 12 53.5694 17.709 53.5694 24.7517Z" fill="#F79E1B"/>
</svg>
