<svg width="66" height="56" viewBox="0 0 66 56" fill="none" xmlns="http://www.w3.org/2000/svg">
<rect x="9.0332" y="12" width="48" height="32" rx="8" fill="#172B85"/>
<path fill-rule="evenodd" clip-rule="evenodd" d="M23.0584 33.9066H19.7923L17.3431 24.5973C17.2268 24.1691 16.98 23.7905 16.6169 23.6121C15.7108 23.1637 14.7123 22.8068 13.623 22.6268V22.2684H18.8846C19.6107 22.2684 20.1554 22.8068 20.2461 23.4321L21.5169 30.1472L24.7815 22.2684H27.9569L23.0584 33.9066ZM29.7723 33.9066H26.6877L29.2277 22.2684H32.3123L29.7723 33.9066ZM36.303 25.4925C36.3938 24.8657 36.9384 24.5073 37.5738 24.5073C38.5723 24.4173 39.66 24.5973 40.5677 25.0441L41.1123 22.5384C40.2046 22.18 39.2061 22 38.3 22C35.3061 22 33.1276 23.6121 33.1276 25.8494C33.1276 27.5514 34.6707 28.4451 35.76 28.9835C36.9384 29.5203 37.3923 29.8787 37.3015 30.4156C37.3015 31.2208 36.3938 31.5792 35.4877 31.5792C34.3984 31.5792 33.3092 31.3108 32.3123 30.8624L31.7677 33.3697C32.8569 33.8166 34.0354 33.9965 35.1246 33.9965C38.4815 34.085 40.5677 32.4745 40.5677 30.0572C40.5677 27.013 36.303 26.8346 36.303 25.4925ZM51.363 33.9066L48.9138 22.2684H46.2831C45.7384 22.2684 45.1938 22.6268 45.0123 23.1637L40.4769 33.9066H43.6523L44.2861 32.2061H48.1876L48.5507 33.9066H51.363ZM46.7369 25.4026L47.643 29.7888H45.103L46.7369 25.4026Z" fill="white"/>
</svg>
